<svg width="95" height="45" viewBox="0 0 95 45" fill="none" xmlns="http://www.w3.org/2000/svg">
<path d="M0.999992 5.15718L1.13663 6.3582L3.89802 6.88436L8.17522 8.62212L12.7091 11.0008L15.8925 12.7687L18.9467 13.8309L24.782 14.1826L22.885 16.7213L21.5662 20.6128H15.6501L12.1452 23.5055L8.28694 25.8547L8.25448 26.9788L8.32619 27.791L9.46004 27.6461L10.5456 26.898L14.9926 23.8694L24.3148 24.1985L28.2704 21.0619L30.3622 20.0979L33.6716 16.6496L35.8895 15.8064L38.3104 15.9589L41.0748 16.9395L48.5777 16.676L50.9556 15.0372L51.4681 13.3085V16.0472L52.2396 17.1795L60.0384 14.3948L60.9548 14.0301L63.2942 14.5374L65.7537 15.5014L67.0951 16.1672L68.3482 15.4448L67.625 14.0943L61.684 11.6824L57.1109 12.1165L56.4119 11.9232L58.5331 8.76404L58.823 8.18579L59.9319 7.43845L60.2701 8.2575L61.7165 8.30582L63.2844 7.73965L63.6218 8.07331L64.3933 8.20089L65.7438 6.79981L66.0647 6.01473L64.6508 4.3434L64.5866 3.50699L63.5577 2.47883L60.9216 1.96399L59.6987 1H58.9921L58.8638 1.70658L56.8694 1.77074L55.0055 2.92874L49.5235 3.51529L44.5564 6.2646L39.9576 7.68681L37.0633 8.77989L32.4978 9.74539L27.6921 9.85032L22.9975 10.9041L19.1219 11.1601L16.1635 10.3878L9.55742 7.11007L5.61765 5.69315L2.80569 5.08471L0.999992 5.15718Z" fill="#EE5514" stroke="#EE5514" stroke-width="1.5333" stroke-miterlimit="10"/>
<path d="M37.5781 21.536H36.6321C36.6174 22.4747 36.6027 23.4207 36.5881 24.374C36.5881 25.3273 36.5881 26.2807 36.5881 27.234V28.202H37.6661C38.8247 28.202 39.6681 27.8867 40.1961 27.256C40.7241 26.6253 40.9881 25.7967 40.9881 24.77C40.9881 23.7287 40.7021 22.9293 40.1301 22.372C39.5727 21.8147 38.7221 21.536 37.5781 21.536ZM31.8581 21.448V20.414H37.7981C39.8661 20.414 41.3767 20.8173 42.3301 21.624C43.2981 22.416 43.7821 23.4647 43.7821 24.77C43.7821 25.5913 43.5767 26.354 43.1661 27.058C42.7701 27.7473 42.1101 28.2973 41.1861 28.708C40.2767 29.1187 39.0447 29.324 37.4901 29.324H36.5881C36.5881 30.028 36.5881 30.7467 36.5881 31.48C36.6027 32.2133 36.6174 32.9687 36.6321 33.746L38.6341 33.966V35H31.8581V33.966L33.7061 33.768C33.7354 32.8587 33.7501 31.9347 33.7501 30.996C33.7501 30.0573 33.7501 29.1187 33.7501 28.18V27.234C33.7501 26.31 33.7501 25.386 33.7501 24.462C33.7501 23.5233 33.7354 22.5847 33.7061 21.646L31.8581 21.448ZM53.9457 21.448V20.414H59.2257V21.448L57.3557 21.668V28.884C57.3557 30.424 57.1211 31.6707 56.6517 32.624C56.1971 33.5773 55.5591 34.274 54.7377 34.714C53.9164 35.154 52.9484 35.374 51.8337 35.374C50.7631 35.374 49.8171 35.176 48.9957 34.78C48.1744 34.384 47.5291 33.7533 47.0597 32.888C46.5904 32.0227 46.3557 30.8933 46.3557 29.5V27.102C46.3557 26.1927 46.3557 25.2833 46.3557 24.374C46.3557 23.45 46.3411 22.5333 46.3117 21.624L44.5957 21.448V20.414H51.2837V21.448L49.2597 21.668C49.2451 22.5627 49.2304 23.4647 49.2157 24.374C49.2157 25.2833 49.2157 26.1927 49.2157 27.102V28.818C49.2157 30.006 49.3477 30.952 49.6117 31.656C49.8757 32.3453 50.2571 32.844 50.7557 33.152C51.2691 33.4453 51.8851 33.592 52.6037 33.592C53.7331 33.592 54.5911 33.218 55.1777 32.47C55.7791 31.7073 56.0797 30.4167 56.0797 28.598V21.69L53.9457 21.448ZM60.2552 35V33.966L62.3012 33.68V21.69L60.3432 21.448V20.414H65.2492L69.5392 31.348L73.5872 20.414H78.4932V21.448L76.6892 21.646C76.6746 22.5553 76.6599 23.4793 76.6452 24.418C76.6452 25.342 76.6452 26.2807 76.6452 27.234V28.18C76.6452 29.1187 76.6452 30.0573 76.6452 30.996C76.6599 31.92 76.6746 32.844 76.6892 33.768L78.5372 33.966V35H72.0472V33.966L73.7852 33.746C73.8146 32.8367 73.8292 31.9347 73.8292 31.04C73.8292 30.1307 73.8292 29.258 73.8292 28.422L73.8512 23.186L69.4952 35H68.0872L63.4672 23.186L63.5772 27.498V33.68L65.4032 33.966V35H60.2552ZM86.0044 23.252L83.9804 29.346H88.0064L86.0044 23.252ZM79.5584 35V33.966L81.3624 33.702L85.9604 20.326H87.7644L92.3624 33.812L93.8584 33.988V35H87.5004V33.988L89.4364 33.746L88.3804 30.49H83.5844L82.5284 33.68L84.4424 33.966V35H79.5584Z" fill="#1A0A03"/>
</svg>
