<svg width="40" height="40" viewBox="0 0 40 40" fill="none" xmlns="http://www.w3.org/2000/svg">
<rect width="40" height="40" rx="8" fill="white"/>
<g clip-path="url(#clip0_1513_3501)">
<path d="M23.55 21C24.3 21 24.96 20.59 25.3 19.97L28.88 13.48C29.25 12.82 28.77 12 28.01 12H13.21L12.27 10H9V12H11L14.6 19.59L13.25 22.03C12.52 23.37 13.48 25 15 25H27V23H15L16.1 21H23.55ZM14.16 14H26.31L23.55 19H16.53L14.16 14ZM15 26C13.9 26 13.01 26.9 13.01 28C13.01 29.1 13.9 30 15 30C16.1 30 17 29.1 17 28C17 26.9 16.1 26 15 26ZM25 26C23.9 26 23.01 26.9 23.01 28C23.01 29.1 23.9 30 25 30C26.1 30 27 29.1 27 28C27 26.9 26.1 26 25 26Z" fill="#6C757D"/>
</g>
<defs>
<clipPath id="clip0_1513_3501">
<rect width="24" height="24" fill="white" transform="translate(8 8)"/>
</clipPath>
</defs>
</svg>
